<?xml version="1.0" encoding="utf-8" standalone="no"?>
<!DOCTYPE svg PUBLIC "-//W3C//DTD SVG 1.1//EN"
  "http://www.w3.org/Graphics/SVG/1.1/DTD/svg11.dtd">
<!-- Created with matplotlib (https://matplotlib.org/) -->
<svg height="345.6pt" version="1.1" viewBox="0 0 460.8 345.6" width="460.8pt" xmlns="http://www.w3.org/2000/svg" xmlns:xlink="http://www.w3.org/1999/xlink">
 <metadata>
  <rdf:RDF xmlns:cc="http://creativecommons.org/ns#" xmlns:dc="http://purl.org/dc/elements/1.1/" xmlns:rdf="http://www.w3.org/1999/02/22-rdf-syntax-ns#">
   <cc:Work>
    <dc:type rdf:resource="http://purl.org/dc/dcmitype/StillImage"/>
    <dc:date>2022-06-05T10:33:54.683473</dc:date>
    <dc:format>image/svg+xml</dc:format>
    <dc:creator>
     <cc:Agent>
      <dc:title>Matplotlib v3.3.2, https://matplotlib.org/</dc:title>
     </cc:Agent>
    </dc:creator>
   </cc:Work>
  </rdf:RDF>
 </metadata>
 <defs>
  <style type="text/css">*{stroke-linecap:butt;stroke-linejoin:round;}</style>
 </defs>
 <g id="figure_1">
  <g id="patch_1">
   <path d="M 0 345.6 
L 460.8 345.6 
L 460.8 0 
L 0 0 
z
" style="fill:#ffffff;"/>
  </g>
  <g id="axes_1">
   <g id="patch_2">
    <path d="M 57.6 311.04 
L 414.72 311.04 
L 414.72 41.472 
L 57.6 41.472 
z
" style="fill:#ffffff;"/>
   </g>
   <g id="matplotlib.axis_1">
    <g id="xtick_1">
     <g id="line2d_1">
      <defs>
       <path d="M 0 0 
L 0 3.5 
" id="m4da9759ed7" style="stroke:#000000;stroke-width:0.8;"/>
      </defs>
      <g>
       <use style="stroke:#000000;stroke-width:0.8;" x="61.033846" xlink:href="#m4da9759ed7" y="311.04"/>
      </g>
     </g>
     <g id="text_1">
      <!-- 11-03 -->
      <g transform="translate(56.324312 327.266962)rotate(-30)scale(0.05 -0.05)">
       <defs>
        <path d="M 21.875 56.25 
Q 16.796875 51.171875 8.984375 46.484375 
L 8.984375 53.90625 
Q 18.75 60.546875 25 69.53125 
L 29.6875 69.53125 
L 29.6875 2.34375 
L 21.875 2.34375 
z
" id="SimHei-49"/>
        <path d="M 46.484375 33.203125 
L 1.953125 33.203125 
L 1.953125 39.453125 
L 46.484375 39.453125 
z
" id="SimHei-45"/>
        <path d="M 3.125 29.296875 
Q 3.90625 50 6.4375 56.046875 
Q 8.984375 62.109375 13.671875 66.015625 
Q 18.359375 69.921875 25.1875 69.921875 
Q 32.03125 69.921875 37.109375 64.25 
Q 42.1875 58.59375 43.75 50 
Q 45.3125 41.40625 44.71875 30.265625 
Q 44.140625 19.140625 40.8125 12.109375 
Q 37.5 5.078125 30.859375 2.34375 
Q 24.21875 -0.390625 17.578125 2.921875 
Q 10.9375 6.25 8.203125 11.71875 
Q 5.46875 17.1875 4.296875 23.234375 
Q 3.125 29.296875 3.90625 50 
z
M 12.890625 52.734375 
Q 10.546875 31.25 12.5 22.84375 
Q 14.453125 14.453125 18.9375 10.9375 
Q 23.4375 7.421875 28.125 9.5625 
Q 32.8125 11.71875 34.953125 18.15625 
Q 37.109375 24.609375 37.109375 32.21875 
Q 37.109375 39.84375 36.515625 46.09375 
Q 35.9375 52.34375 33 57.421875 
Q 30.078125 62.5 25.1875 62.6875 
Q 20.3125 62.890625 16.59375 57.8125 
Q 12.890625 52.734375 10.546875 31.25 
z
" id="SimHei-48"/>
        <path d="M 3.90625 19.140625 
L 10.9375 20.3125 
Q 12.5 15.234375 16.015625 11.90625 
Q 19.53125 8.59375 24.796875 8.78125 
Q 30.078125 8.984375 33.203125 13.078125 
Q 36.328125 17.1875 35.9375 22.453125 
Q 35.546875 27.734375 31.828125 30.65625 
Q 28.125 33.59375 19.921875 34.765625 
L 19.921875 39.84375 
Q 28.125 40.625 31.828125 44.140625 
Q 35.546875 47.65625 35.15625 53.3125 
Q 34.765625 58.984375 30.078125 61.515625 
Q 25.390625 64.0625 20.109375 62.109375 
Q 14.84375 60.15625 11.71875 51.171875 
L 4.6875 52.34375 
Q 7.03125 59.375 11.125 64.0625 
Q 15.234375 68.75 22.265625 69.53125 
Q 29.296875 70.3125 34.5625 67.765625 
Q 39.84375 65.234375 41.984375 59.953125 
Q 44.140625 54.6875 42.578125 48.4375 
Q 41.015625 42.1875 33.59375 37.5 
Q 39.0625 35.15625 41.984375 30.46875 
Q 44.921875 25.78125 43.9375 18.15625 
Q 42.96875 10.546875 37.109375 5.859375 
Q 31.25 1.171875 23.828125 1.359375 
Q 16.40625 1.5625 10.9375 6.046875 
Q 5.46875 10.546875 3.90625 19.140625 
z
" id="SimHei-51"/>
       </defs>
       <use xlink:href="#SimHei-49"/>
       <use x="50" xlink:href="#SimHei-49"/>
       <use x="100" xlink:href="#SimHei-45"/>
       <use x="150" xlink:href="#SimHei-48"/>
       <use x="200" xlink:href="#SimHei-51"/>
      </g>
     </g>
    </g>
    <g id="xtick_2">
     <g id="line2d_2">
      <g>
       <use style="stroke:#000000;stroke-width:0.8;" x="74.769231" xlink:href="#m4da9759ed7" y="311.04"/>
      </g>
     </g>
     <g id="text_2">
      <!-- 11-10 -->
      <g transform="translate(70.059697 327.266962)rotate(-30)scale(0.05 -0.05)">
       <use xlink:href="#SimHei-49"/>
       <use x="50" xlink:href="#SimHei-49"/>
       <use x="100" xlink:href="#SimHei-45"/>
       <use x="150" xlink:href="#SimHei-49"/>
       <use x="200" xlink:href="#SimHei-48"/>
      </g>
     </g>
    </g>
    <g id="xtick_3">
     <g id="line2d_3">
      <g>
       <use style="stroke:#000000;stroke-width:0.8;" x="88.504615" xlink:href="#m4da9759ed7" y="311.04"/>
      </g>
     </g>
     <g id="text_3">
      <!-- 12-02 -->
      <g transform="translate(83.795082 327.266962)rotate(-30)scale(0.05 -0.05)">
       <defs>
        <path d="M 4.6875 3.90625 
Q 5.078125 9.765625 10.15625 14.453125 
Q 15.234375 19.140625 23.046875 29.09375 
Q 30.859375 39.0625 33.203125 44.53125 
Q 35.546875 50 34.953125 53.90625 
Q 34.375 57.8125 31.25 60.34375 
Q 28.125 62.890625 24.015625 62.5 
Q 19.921875 62.109375 16.203125 59.375 
Q 12.5 56.640625 10.546875 51.171875 
L 3.125 52.34375 
Q 6.25 61.328125 11.125 65.421875 
Q 16.015625 69.53125 22.65625 69.921875 
Q 26.5625 70.3125 29.6875 69.71875 
Q 32.8125 69.140625 36.125 66.984375 
Q 39.453125 64.84375 41.59375 60.546875 
Q 43.75 56.25 43.15625 50.1875 
Q 42.578125 44.140625 37.109375 35.734375 
Q 31.640625 27.34375 16.015625 9.375 
L 44.140625 9.375 
L 44.140625 2.34375 
L 4.6875 2.34375 
z
" id="SimHei-50"/>
       </defs>
       <use xlink:href="#SimHei-49"/>
       <use x="50" xlink:href="#SimHei-50"/>
       <use x="100" xlink:href="#SimHei-45"/>
       <use x="150" xlink:href="#SimHei-48"/>
       <use x="200" xlink:href="#SimHei-50"/>
      </g>
     </g>
    </g>
    <g id="xtick_4">
     <g id="line2d_4">
      <g>
       <use style="stroke:#000000;stroke-width:0.8;" x="102.24" xlink:href="#m4da9759ed7" y="311.04"/>
      </g>
     </g>
     <g id="text_4">
      <!-- 12-06 -->
      <g transform="translate(97.530466 327.266962)rotate(-30)scale(0.05 -0.05)">
       <defs>
        <path d="M 3.515625 19.53125 
Q 4.296875 30.859375 6.046875 34.765625 
Q 7.8125 38.671875 11.328125 44.53125 
L 27.34375 69.53125 
L 36.328125 69.53125 
L 19.921875 43.75 
Q 30.46875 46.484375 36.71875 42.96875 
Q 42.96875 39.453125 45.109375 34.953125 
Q 47.265625 30.46875 47.453125 25.1875 
Q 47.65625 19.921875 45.890625 14.84375 
Q 44.140625 9.765625 39.640625 5.65625 
Q 35.15625 1.5625 27.140625 1.171875 
Q 19.140625 0.78125 13.46875 4.09375 
Q 7.8125 7.421875 5.65625 13.46875 
Q 3.515625 19.53125 4.296875 30.859375 
z
M 12.5 16.015625 
Q 19.53125 8.59375 25.390625 8.203125 
Q 31.25 7.8125 35.15625 12.109375 
Q 39.0625 16.40625 39.0625 24.609375 
Q 39.0625 32.8125 34.171875 35.9375 
Q 29.296875 39.0625 23.234375 38.28125 
Q 17.1875 37.5 14.453125 32.421875 
Q 11.71875 27.34375 12.109375 21.671875 
Q 12.5 16.015625 19.53125 8.59375 
z
" id="SimHei-54"/>
       </defs>
       <use xlink:href="#SimHei-49"/>
       <use x="50" xlink:href="#SimHei-50"/>
       <use x="100" xlink:href="#SimHei-45"/>
       <use x="150" xlink:href="#SimHei-48"/>
       <use x="200" xlink:href="#SimHei-54"/>
      </g>
     </g>
    </g>
    <g id="xtick_5">
     <g id="line2d_5">
      <g>
       <use style="stroke:#000000;stroke-width:0.8;" x="115.975385" xlink:href="#m4da9759ed7" y="311.04"/>
      </g>
     </g>
     <g id="text_5">
      <!-- 12-10 -->
      <g transform="translate(111.265851 327.266962)rotate(-30)scale(0.05 -0.05)">
       <use xlink:href="#SimHei-49"/>
       <use x="50" xlink:href="#SimHei-50"/>
       <use x="100" xlink:href="#SimHei-45"/>
       <use x="150" xlink:href="#SimHei-49"/>
       <use x="200" xlink:href="#SimHei-48"/>
      </g>
     </g>
    </g>
    <g id="xtick_6">
     <g id="line2d_6">
      <g>
       <use style="stroke:#000000;stroke-width:0.8;" x="129.710769" xlink:href="#m4da9759ed7" y="311.04"/>
      </g>
     </g>
     <g id="text_6">
      <!-- 13-02 -->
      <g transform="translate(125.001235 327.266962)rotate(-30)scale(0.05 -0.05)">
       <use xlink:href="#SimHei-49"/>
       <use x="50" xlink:href="#SimHei-51"/>
       <use x="100" xlink:href="#SimHei-45"/>
       <use x="150" xlink:href="#SimHei-48"/>
       <use x="200" xlink:href="#SimHei-50"/>
      </g>
     </g>
    </g>
    <g id="xtick_7">
     <g id="line2d_7">
      <g>
       <use style="stroke:#000000;stroke-width:0.8;" x="143.446154" xlink:href="#m4da9759ed7" y="311.04"/>
      </g>
     </g>
     <g id="text_7">
      <!-- 13-06 -->
      <g transform="translate(138.73662 327.266962)rotate(-30)scale(0.05 -0.05)">
       <use xlink:href="#SimHei-49"/>
       <use x="50" xlink:href="#SimHei-51"/>
       <use x="100" xlink:href="#SimHei-45"/>
       <use x="150" xlink:href="#SimHei-48"/>
       <use x="200" xlink:href="#SimHei-54"/>
      </g>
     </g>
    </g>
    <g id="xtick_8">
     <g id="line2d_8">
      <g>
       <use style="stroke:#000000;stroke-width:0.8;" x="157.181538" xlink:href="#m4da9759ed7" y="311.04"/>
      </g>
     </g>
     <g id="text_8">
      <!-- 13-09 -->
      <g transform="translate(152.472005 327.266962)rotate(-30)scale(0.05 -0.05)">
       <defs>
        <path d="M 12.5 1.171875 
Q 21.09375 15.625 26.5625 27.34375 
Q 16.796875 25.78125 10.34375 29.875 
Q 3.90625 33.984375 2.53125 41.015625 
Q 1.171875 48.046875 2.734375 53.703125 
Q 4.296875 59.375 7.609375 63.078125 
Q 10.9375 66.796875 15.625 68.359375 
Q 20.3125 69.921875 24.015625 69.921875 
Q 27.734375 69.921875 31.640625 68.359375 
Q 35.546875 66.796875 38.671875 63.671875 
Q 41.796875 60.546875 42.96875 57.21875 
Q 44.140625 53.90625 44.140625 48.625 
Q 44.140625 43.359375 40.234375 35.15625 
Q 36.328125 26.953125 21.09375 1.171875 
z
M 9.765625 50 
Q 10.9375 39.84375 14.640625 36.515625 
Q 18.359375 33.203125 22.65625 33.59375 
Q 26.953125 33.984375 29.484375 35.9375 
Q 32.03125 37.890625 34.375 42.578125 
Q 35.9375 48.4375 35.15625 52.53125 
Q 34.375 56.640625 31.046875 59.375 
Q 27.734375 62.109375 23.828125 62.109375 
Q 21.484375 62.5 17.765625 60.9375 
Q 14.0625 59.375 11.90625 54.6875 
Q 9.765625 50 10.9375 39.84375 
z
" id="SimHei-57"/>
       </defs>
       <use xlink:href="#SimHei-49"/>
       <use x="50" xlink:href="#SimHei-51"/>
       <use x="100" xlink:href="#SimHei-45"/>
       <use x="150" xlink:href="#SimHei-48"/>
       <use x="200" xlink:href="#SimHei-57"/>
      </g>
     </g>
    </g>
    <g id="xtick_9">
     <g id="line2d_9">
      <g>
       <use style="stroke:#000000;stroke-width:0.8;" x="170.916923" xlink:href="#m4da9759ed7" y="311.04"/>
      </g>
     </g>
     <g id="text_9">
      <!-- 14-02 -->
      <g transform="translate(166.207389 327.266962)rotate(-30)scale(0.05 -0.05)">
       <defs>
        <path d="M 31.25 17.1875 
L 1.171875 17.1875 
L 1.171875 23.828125 
L 32.8125 69.53125 
L 38.671875 69.53125 
L 38.671875 23.828125 
L 48.046875 23.828125 
L 48.046875 17.1875 
L 38.671875 17.1875 
L 38.671875 2.34375 
L 31.25 2.34375 
z
M 31.25 23.828125 
L 31.25 54.6875 
L 9.375 23.828125 
z
" id="SimHei-52"/>
       </defs>
       <use xlink:href="#SimHei-49"/>
       <use x="50" xlink:href="#SimHei-52"/>
       <use x="100" xlink:href="#SimHei-45"/>
       <use x="150" xlink:href="#SimHei-48"/>
       <use x="200" xlink:href="#SimHei-50"/>
      </g>
     </g>
    </g>
    <g id="xtick_10">
     <g id="line2d_10">
      <g>
       <use style="stroke:#000000;stroke-width:0.8;" x="184.652308" xlink:href="#m4da9759ed7" y="311.04"/>
      </g>
     </g>
     <g id="text_10">
      <!-- 14-06 -->
      <g transform="translate(179.942774 327.266962)rotate(-30)scale(0.05 -0.05)">
       <use xlink:href="#SimHei-49"/>
       <use x="50" xlink:href="#SimHei-52"/>
       <use x="100" xlink:href="#SimHei-45"/>
       <use x="150" xlink:href="#SimHei-48"/>
       <use x="200" xlink:href="#SimHei-54"/>
      </g>
     </g>
    </g>
    <g id="xtick_11">
     <g id="line2d_11">
      <g>
       <use style="stroke:#000000;stroke-width:0.8;" x="198.387692" xlink:href="#m4da9759ed7" y="311.04"/>
      </g>
     </g>
     <g id="text_11">
      <!-- 14-10 -->
      <g transform="translate(193.678159 327.266962)rotate(-30)scale(0.05 -0.05)">
       <use xlink:href="#SimHei-49"/>
       <use x="50" xlink:href="#SimHei-52"/>
       <use x="100" xlink:href="#SimHei-45"/>
       <use x="150" xlink:href="#SimHei-49"/>
       <use x="200" xlink:href="#SimHei-48"/>
      </g>
     </g>
    </g>
    <g id="xtick_12">
     <g id="line2d_12">
      <g>
       <use style="stroke:#000000;stroke-width:0.8;" x="212.123077" xlink:href="#m4da9759ed7" y="311.04"/>
      </g>
     </g>
     <g id="text_12">
      <!-- 15-02 -->
      <g transform="translate(207.413543 327.266962)rotate(-30)scale(0.05 -0.05)">
       <defs>
        <path d="M 8.59375 20.703125 
Q 11.328125 10.15625 17.96875 8.984375 
Q 24.609375 7.8125 28.703125 10.34375 
Q 32.8125 12.890625 34.5625 16.984375 
Q 36.328125 21.09375 36.125 26.171875 
Q 35.9375 31.25 33.390625 34.765625 
Q 30.859375 38.28125 26.953125 39.453125 
Q 23.046875 40.625 18.15625 39.453125 
Q 13.28125 38.28125 10.15625 33.984375 
L 3.515625 34.765625 
Q 4.296875 37.109375 10.9375 68.359375 
L 41.796875 68.359375 
L 41.796875 61.328125 
L 16.796875 61.328125 
Q 14.84375 50.78125 12.890625 44.53125 
Q 18.75 47.265625 23.828125 47.0625 
Q 28.90625 46.875 33.59375 44.71875 
Q 38.28125 42.578125 40.421875 38.859375 
Q 42.578125 35.15625 43.546875 31.4375 
Q 44.53125 27.734375 44.328125 23.4375 
Q 44.140625 19.140625 42.578125 14.640625 
Q 41.015625 10.15625 37.890625 7.21875 
Q 34.765625 4.296875 30.265625 2.53125 
Q 25.78125 0.78125 19.921875 1.171875 
Q 14.0625 1.5625 8.78125 5.46875 
Q 3.515625 9.375 1.5625 18.75 
z
" id="SimHei-53"/>
       </defs>
       <use xlink:href="#SimHei-49"/>
       <use x="50" xlink:href="#SimHei-53"/>
       <use x="100" xlink:href="#SimHei-45"/>
       <use x="150" xlink:href="#SimHei-48"/>
       <use x="200" xlink:href="#SimHei-50"/>
      </g>
     </g>
    </g>
    <g id="xtick_13">
     <g id="line2d_13">
      <g>
       <use style="stroke:#000000;stroke-width:0.8;" x="225.858462" xlink:href="#m4da9759ed7" y="311.04"/>
      </g>
     </g>
     <g id="text_13">
      <!-- 15-06 -->
      <g transform="translate(221.148928 327.266962)rotate(-30)scale(0.05 -0.05)">
       <use xlink:href="#SimHei-49"/>
       <use x="50" xlink:href="#SimHei-53"/>
       <use x="100" xlink:href="#SimHei-45"/>
       <use x="150" xlink:href="#SimHei-48"/>
       <use x="200" xlink:href="#SimHei-54"/>
      </g>
     </g>
    </g>
    <g id="xtick_14">
     <g id="line2d_14">
      <g>
       <use style="stroke:#000000;stroke-width:0.8;" x="239.593846" xlink:href="#m4da9759ed7" y="311.04"/>
      </g>
     </g>
     <g id="text_14">
      <!-- 15-10 -->
      <g transform="translate(234.884312 327.266962)rotate(-30)scale(0.05 -0.05)">
       <use xlink:href="#SimHei-49"/>
       <use x="50" xlink:href="#SimHei-53"/>
       <use x="100" xlink:href="#SimHei-45"/>
       <use x="150" xlink:href="#SimHei-49"/>
       <use x="200" xlink:href="#SimHei-48"/>
      </g>
     </g>
    </g>
    <g id="xtick_15">
     <g id="line2d_15">
      <g>
       <use style="stroke:#000000;stroke-width:0.8;" x="253.329231" xlink:href="#m4da9759ed7" y="311.04"/>
      </g>
     </g>
     <g id="text_15">
      <!-- 16-02 -->
      <g transform="translate(248.619697 327.266962)rotate(-30)scale(0.05 -0.05)">
       <use xlink:href="#SimHei-49"/>
       <use x="50" xlink:href="#SimHei-54"/>
       <use x="100" xlink:href="#SimHei-45"/>
       <use x="150" xlink:href="#SimHei-48"/>
       <use x="200" xlink:href="#SimHei-50"/>
      </g>
     </g>
    </g>
    <g id="xtick_16">
     <g id="line2d_16">
      <g>
       <use style="stroke:#000000;stroke-width:0.8;" x="267.064615" xlink:href="#m4da9759ed7" y="311.04"/>
      </g>
     </g>
     <g id="text_16">
      <!-- 16-06 -->
      <g transform="translate(262.355082 327.266962)rotate(-30)scale(0.05 -0.05)">
       <use xlink:href="#SimHei-49"/>
       <use x="50" xlink:href="#SimHei-54"/>
       <use x="100" xlink:href="#SimHei-45"/>
       <use x="150" xlink:href="#SimHei-48"/>
       <use x="200" xlink:href="#SimHei-54"/>
      </g>
     </g>
    </g>
    <g id="xtick_17">
     <g id="line2d_17">
      <g>
       <use style="stroke:#000000;stroke-width:0.8;" x="280.8" xlink:href="#m4da9759ed7" y="311.04"/>
      </g>
     </g>
     <g id="text_17">
      <!-- 16-10 -->
      <g transform="translate(276.090466 327.266962)rotate(-30)scale(0.05 -0.05)">
       <use xlink:href="#SimHei-49"/>
       <use x="50" xlink:href="#SimHei-54"/>
       <use x="100" xlink:href="#SimHei-45"/>
       <use x="150" xlink:href="#SimHei-49"/>
       <use x="200" xlink:href="#SimHei-48"/>
      </g>
     </g>
    </g>
    <g id="xtick_18">
     <g id="line2d_18">
      <g>
       <use style="stroke:#000000;stroke-width:0.8;" x="294.535385" xlink:href="#m4da9759ed7" y="311.04"/>
      </g>
     </g>
     <g id="text_18">
      <!-- 17-02 -->
      <g transform="translate(289.825851 327.266962)rotate(-30)scale(0.05 -0.05)">
       <defs>
        <path d="M 13.28125 2.34375 
Q 20.3125 32.03125 37.890625 61.328125 
L 4.296875 61.328125 
L 4.296875 68.359375 
L 46.09375 68.359375 
L 46.09375 61.71875 
Q 27.734375 32.03125 21.875 2.34375 
L 13.28125 2.34375 
z
" id="SimHei-55"/>
       </defs>
       <use xlink:href="#SimHei-49"/>
       <use x="50" xlink:href="#SimHei-55"/>
       <use x="100" xlink:href="#SimHei-45"/>
       <use x="150" xlink:href="#SimHei-48"/>
       <use x="200" xlink:href="#SimHei-50"/>
      </g>
     </g>
    </g>
    <g id="xtick_19">
     <g id="line2d_19">
      <g>
       <use style="stroke:#000000;stroke-width:0.8;" x="308.270769" xlink:href="#m4da9759ed7" y="311.04"/>
      </g>
     </g>
     <g id="text_19">
      <!-- 17-06 -->
      <g transform="translate(303.561235 327.266962)rotate(-30)scale(0.05 -0.05)">
       <use xlink:href="#SimHei-49"/>
       <use x="50" xlink:href="#SimHei-55"/>
       <use x="100" xlink:href="#SimHei-45"/>
       <use x="150" xlink:href="#SimHei-48"/>
       <use x="200" xlink:href="#SimHei-54"/>
      </g>
     </g>
    </g>
    <g id="xtick_20">
     <g id="line2d_20">
      <g>
       <use style="stroke:#000000;stroke-width:0.8;" x="322.006154" xlink:href="#m4da9759ed7" y="311.04"/>
      </g>
     </g>
     <g id="text_20">
      <!-- 17-10 -->
      <g transform="translate(317.29662 327.266962)rotate(-30)scale(0.05 -0.05)">
       <use xlink:href="#SimHei-49"/>
       <use x="50" xlink:href="#SimHei-55"/>
       <use x="100" xlink:href="#SimHei-45"/>
       <use x="150" xlink:href="#SimHei-49"/>
       <use x="200" xlink:href="#SimHei-48"/>
      </g>
     </g>
    </g>
    <g id="xtick_21">
     <g id="line2d_21">
      <g>
       <use style="stroke:#000000;stroke-width:0.8;" x="335.741538" xlink:href="#m4da9759ed7" y="311.04"/>
      </g>
     </g>
     <g id="text_21">
      <!-- 18-02 -->
      <g transform="translate(331.032005 327.266962)rotate(-30)scale(0.05 -0.05)">
       <defs>
        <path d="M 2.734375 16.796875 
Q 2.734375 26.171875 5.078125 30.65625 
Q 7.421875 35.15625 12.890625 37.890625 
Q 8.203125 40.625 6.640625 43.9375 
Q 5.078125 47.265625 4.875 51.5625 
Q 4.6875 55.859375 6.046875 58.984375 
Q 7.421875 62.109375 10.15625 64.84375 
Q 12.890625 67.578125 16.203125 68.546875 
Q 19.53125 69.53125 23.4375 69.53125 
Q 27.34375 69.53125 30.46875 68.75 
Q 33.59375 67.96875 37.109375 65.421875 
Q 40.625 62.890625 42.1875 58.203125 
Q 43.75 53.515625 41.984375 47.265625 
Q 40.234375 41.015625 32.8125 37.5 
Q 39.453125 35.546875 42.1875 31.4375 
Q 44.921875 27.34375 44.921875 21.484375 
Q 44.921875 15.625 43.15625 12.109375 
Q 41.40625 8.59375 39.25 6.25 
Q 37.109375 3.90625 33.390625 2.53125 
Q 29.6875 1.171875 24.015625 1.171875 
Q 18.359375 1.171875 14.25 2.53125 
Q 10.15625 3.90625 7.421875 6.640625 
Q 4.6875 9.375 3.703125 13.078125 
Q 2.734375 16.796875 2.734375 26.171875 
z
M 10.9375 26.5625 
Q 10.546875 17.1875 12.296875 13.671875 
Q 14.0625 10.15625 18.75 9.171875 
Q 23.4375 8.203125 28.515625 9.375 
Q 33.59375 10.546875 35.546875 14.84375 
Q 37.5 19.140625 36.90625 23.4375 
Q 36.328125 27.734375 32.03125 30.65625 
Q 27.734375 33.59375 22.65625 33.203125 
Q 17.578125 32.8125 14.25 29.6875 
Q 10.9375 26.5625 10.546875 17.1875 
z
M 12.109375 56.25 
Q 12.109375 48.4375 14.84375 44.921875 
Q 17.578125 41.40625 23.4375 41.40625 
Q 29.296875 41.40625 32.21875 44.921875 
Q 35.15625 48.4375 34.953125 53.3125 
Q 34.765625 58.203125 31.4375 60.546875 
Q 28.125 62.890625 22.453125 62.5 
Q 16.796875 62.109375 14.453125 59.171875 
Q 12.109375 56.25 12.109375 48.4375 
z
" id="SimHei-56"/>
       </defs>
       <use xlink:href="#SimHei-49"/>
       <use x="50" xlink:href="#SimHei-56"/>
       <use x="100" xlink:href="#SimHei-45"/>
       <use x="150" xlink:href="#SimHei-48"/>
       <use x="200" xlink:href="#SimHei-50"/>
      </g>
     </g>
    </g>
    <g id="xtick_22">
     <g id="line2d_22">
      <g>
       <use style="stroke:#000000;stroke-width:0.8;" x="349.476923" xlink:href="#m4da9759ed7" y="311.04"/>
      </g>
     </g>
     <g id="text_22">
      <!-- 18-06 -->
      <g transform="translate(344.767389 327.266962)rotate(-30)scale(0.05 -0.05)">
       <use xlink:href="#SimHei-49"/>
       <use x="50" xlink:href="#SimHei-56"/>
       <use x="100" xlink:href="#SimHei-45"/>
       <use x="150" xlink:href="#SimHei-48"/>
       <use x="200" xlink:href="#SimHei-54"/>
      </g>
     </g>
    </g>
    <g id="xtick_23">
     <g id="line2d_23">
      <g>
       <use style="stroke:#000000;stroke-width:0.8;" x="363.212308" xlink:href="#m4da9759ed7" y="311.04"/>
      </g>
     </g>
     <g id="text_23">
      <!-- 18-10 -->
      <g transform="translate(358.502774 327.266962)rotate(-30)scale(0.05 -0.05)">
       <use xlink:href="#SimHei-49"/>
       <use x="50" xlink:href="#SimHei-56"/>
       <use x="100" xlink:href="#SimHei-45"/>
       <use x="150" xlink:href="#SimHei-49"/>
       <use x="200" xlink:href="#SimHei-48"/>
      </g>
     </g>
    </g>
    <g id="xtick_24">
     <g id="line2d_24">
      <g>
       <use style="stroke:#000000;stroke-width:0.8;" x="376.947692" xlink:href="#m4da9759ed7" y="311.04"/>
      </g>
     </g>
     <g id="text_24">
      <!-- 19-02 -->
      <g transform="translate(372.238159 327.266962)rotate(-30)scale(0.05 -0.05)">
       <use xlink:href="#SimHei-49"/>
       <use x="50" xlink:href="#SimHei-57"/>
       <use x="100" xlink:href="#SimHei-45"/>
       <use x="150" xlink:href="#SimHei-48"/>
       <use x="200" xlink:href="#SimHei-50"/>
      </g>
     </g>
    </g>
    <g id="xtick_25">
     <g id="line2d_25">
      <g>
       <use style="stroke:#000000;stroke-width:0.8;" x="390.683077" xlink:href="#m4da9759ed7" y="311.04"/>
      </g>
     </g>
     <g id="text_25">
      <!-- 19-06 -->
      <g transform="translate(385.973543 327.266962)rotate(-30)scale(0.05 -0.05)">
       <use xlink:href="#SimHei-49"/>
       <use x="50" xlink:href="#SimHei-57"/>
       <use x="100" xlink:href="#SimHei-45"/>
       <use x="150" xlink:href="#SimHei-48"/>
       <use x="200" xlink:href="#SimHei-54"/>
      </g>
     </g>
    </g>
    <g id="xtick_26">
     <g id="line2d_26">
      <g>
       <use style="stroke:#000000;stroke-width:0.8;" x="404.418462" xlink:href="#m4da9759ed7" y="311.04"/>
      </g>
     </g>
     <g id="text_26">
      <!-- 19-10 -->
      <g transform="translate(399.708928 327.266962)rotate(-30)scale(0.05 -0.05)">
       <use xlink:href="#SimHei-49"/>
       <use x="50" xlink:href="#SimHei-57"/>
       <use x="100" xlink:href="#SimHei-45"/>
       <use x="150" xlink:href="#SimHei-49"/>
       <use x="200" xlink:href="#SimHei-48"/>
      </g>
     </g>
    </g>
    <g id="text_27">
     <!-- 时间 -->
     <g transform="translate(226.16 339.816041)scale(0.1 -0.1)">
      <defs>
       <path d="M 39.453125 71.484375 
Q 39.0625 57.421875 39.0625 37.5 
Q 39.0625 17.578125 39.453125 6.25 
L 31.25 6.25 
L 31.25 13.671875 
L 15.625 13.671875 
L 15.625 0.78125 
L 7.421875 0.78125 
Q 7.8125 18.75 7.8125 36.71875 
Q 7.8125 55.078125 7.421875 71.484375 
L 39.453125 71.484375 
z
M 76.171875 59.765625 
Q 76.171875 71.484375 75.78125 81.640625 
L 84.375 81.640625 
Q 83.984375 71.484375 83.984375 59.765625 
Q 89.84375 59.765625 96.484375 60.15625 
L 96.484375 52.734375 
Q 89.84375 53.125 83.984375 53.125 
L 83.984375 0.78125 
Q 83.984375 -5.078125 79.296875 -6.640625 
Q 74.609375 -8.203125 67.1875 -8.984375 
Q 67.1875 -4.296875 62.890625 0 
Q 70.3125 -0.78125 73.234375 -0.390625 
Q 76.171875 0 76.171875 4.6875 
L 76.171875 53.125 
Q 56.640625 53.125 43.359375 52.734375 
L 43.359375 60.15625 
Q 55.859375 59.765625 76.171875 59.765625 
z
M 31.25 20.3125 
L 31.25 39.84375 
L 15.625 39.84375 
L 15.625 20.3125 
z
M 31.25 46.484375 
L 31.25 64.84375 
L 15.625 64.84375 
L 15.625 46.484375 
z
M 55.46875 42.578125 
Q 60.546875 34.375 65.234375 25 
Q 61.328125 23.828125 57.03125 21.484375 
Q 53.90625 30.859375 48.046875 39.0625 
Q 51.5625 40.625 55.46875 42.578125 
z
" id="SimHei-26102"/>
       <path d="M 69.53125 55.46875 
Q 69.140625 48.046875 69.140625 42.578125 
L 69.140625 21.875 
Q 69.140625 16.796875 69.53125 9.765625 
L 30.078125 9.765625 
Q 30.46875 16.796875 30.46875 22.265625 
L 30.46875 42.578125 
Q 30.46875 48.046875 30.078125 55.46875 
L 69.53125 55.46875 
z
M 90.625 76.171875 
Q 90.234375 68.75 90.234375 61.328125 
L 90.234375 3.90625 
Q 90.625 -5.078125 85.34375 -7.03125 
Q 80.078125 -8.984375 73.828125 -9.765625 
Q 73.4375 -5.078125 70.703125 -0.390625 
Q 78.125 -0.78125 80.265625 0.390625 
Q 82.421875 1.5625 82.421875 5.46875 
L 82.421875 69.53125 
L 58.984375 69.53125 
Q 49.609375 69.53125 41.40625 69.140625 
L 41.40625 76.5625 
Q 49.609375 76.171875 58.984375 76.171875 
z
M 8.59375 -8.203125 
Q 9.375 -0.390625 9.375 8.203125 
L 9.375 49.21875 
Q 9.375 57.421875 8.59375 62.890625 
L 17.578125 62.890625 
Q 17.1875 57.03125 17.1875 51.5625 
L 17.1875 7.8125 
Q 17.1875 0 17.578125 -8.203125 
z
M 61.71875 16.015625 
L 61.71875 30.46875 
L 37.890625 30.46875 
L 37.890625 16.015625 
z
M 61.71875 36.71875 
L 61.71875 49.21875 
L 37.890625 49.21875 
L 37.890625 36.71875 
z
M 23.828125 82.8125 
Q 27.34375 78.125 34.765625 67.96875 
Q 30.46875 66.015625 26.5625 63.671875 
Q 22.65625 71.484375 16.796875 78.515625 
Q 21.09375 81.640625 23.828125 82.8125 
z
" id="SimHei-38388"/>
      </defs>
      <use xlink:href="#SimHei-26102"/>
      <use x="100" xlink:href="#SimHei-38388"/>
     </g>
    </g>
   </g>
   <g id="matplotlib.axis_2">
    <g id="ytick_1">
     <g id="line2d_27">
      <defs>
       <path d="M 0 0 
L -3.5 0 
" id="m43d4eee6f2" style="stroke:#000000;stroke-width:0.8;"/>
      </defs>
      <g>
       <use style="stroke:#000000;stroke-width:0.8;" x="57.6" xlink:href="#m43d4eee6f2" y="311.04"/>
      </g>
     </g>
     <g id="text_28">
      <!-- 0 -->
      <g transform="translate(45.6 314.4775)scale(0.1 -0.1)">
       <use xlink:href="#SimHei-48"/>
      </g>
     </g>
    </g>
    <g id="ytick_2">
     <g id="line2d_28">
      <g>
       <use style="stroke:#000000;stroke-width:0.8;" x="57.6" xlink:href="#m43d4eee6f2" y="290.304"/>
      </g>
     </g>
     <g id="text_29">
      <!-- 50 -->
      <g transform="translate(40.6 293.7415)scale(0.1 -0.1)">
       <use xlink:href="#SimHei-53"/>
       <use x="50" xlink:href="#SimHei-48"/>
      </g>
     </g>
    </g>
    <g id="ytick_3">
     <g id="line2d_29">
      <g>
       <use style="stroke:#000000;stroke-width:0.8;" x="57.6" xlink:href="#m43d4eee6f2" y="269.568"/>
      </g>
     </g>
     <g id="text_30">
      <!-- 100 -->
      <g transform="translate(35.6 273.0055)scale(0.1 -0.1)">
       <use xlink:href="#SimHei-49"/>
       <use x="50" xlink:href="#SimHei-48"/>
       <use x="100" xlink:href="#SimHei-48"/>
      </g>
     </g>
    </g>
    <g id="ytick_4">
     <g id="line2d_30">
      <g>
       <use style="stroke:#000000;stroke-width:0.8;" x="57.6" xlink:href="#m43d4eee6f2" y="248.832"/>
      </g>
     </g>
     <g id="text_31">
      <!-- 150 -->
      <g transform="translate(35.6 252.2695)scale(0.1 -0.1)">
       <use xlink:href="#SimHei-49"/>
       <use x="50" xlink:href="#SimHei-53"/>
       <use x="100" xlink:href="#SimHei-48"/>
      </g>
     </g>
    </g>
    <g id="ytick_5">
     <g id="line2d_31">
      <g>
       <use style="stroke:#000000;stroke-width:0.8;" x="57.6" xlink:href="#m43d4eee6f2" y="228.096"/>
      </g>
     </g>
     <g id="text_32">
      <!-- 200 -->
      <g transform="translate(35.6 231.5335)scale(0.1 -0.1)">
       <use xlink:href="#SimHei-50"/>
       <use x="50" xlink:href="#SimHei-48"/>
       <use x="100" xlink:href="#SimHei-48"/>
      </g>
     </g>
    </g>
    <g id="ytick_6">
     <g id="line2d_32">
      <g>
       <use style="stroke:#000000;stroke-width:0.8;" x="57.6" xlink:href="#m43d4eee6f2" y="207.36"/>
      </g>
     </g>
     <g id="text_33">
      <!-- 250 -->
      <g transform="translate(35.6 210.7975)scale(0.1 -0.1)">
       <use xlink:href="#SimHei-50"/>
       <use x="50" xlink:href="#SimHei-53"/>
       <use x="100" xlink:href="#SimHei-48"/>
      </g>
     </g>
    </g>
    <g id="ytick_7">
     <g id="line2d_33">
      <g>
       <use style="stroke:#000000;stroke-width:0.8;" x="57.6" xlink:href="#m43d4eee6f2" y="186.624"/>
      </g>
     </g>
     <g id="text_34">
      <!-- 300 -->
      <g transform="translate(35.6 190.0615)scale(0.1 -0.1)">
       <use xlink:href="#SimHei-51"/>
       <use x="50" xlink:href="#SimHei-48"/>
       <use x="100" xlink:href="#SimHei-48"/>
      </g>
     </g>
    </g>
    <g id="ytick_8">
     <g id="line2d_34">
      <g>
       <use style="stroke:#000000;stroke-width:0.8;" x="57.6" xlink:href="#m43d4eee6f2" y="165.888"/>
      </g>
     </g>
     <g id="text_35">
      <!-- 350 -->
      <g transform="translate(35.6 169.3255)scale(0.1 -0.1)">
       <use xlink:href="#SimHei-51"/>
       <use x="50" xlink:href="#SimHei-53"/>
       <use x="100" xlink:href="#SimHei-48"/>
      </g>
     </g>
    </g>
    <g id="ytick_9">
     <g id="line2d_35">
      <g>
       <use style="stroke:#000000;stroke-width:0.8;" x="57.6" xlink:href="#m43d4eee6f2" y="145.152"/>
      </g>
     </g>
     <g id="text_36">
      <!-- 400 -->
      <g transform="translate(35.6 148.5895)scale(0.1 -0.1)">
       <use xlink:href="#SimHei-52"/>
       <use x="50" xlink:href="#SimHei-48"/>
       <use x="100" xlink:href="#SimHei-48"/>
      </g>
     </g>
    </g>
    <g id="ytick_10">
     <g id="line2d_36">
      <g>
       <use style="stroke:#000000;stroke-width:0.8;" x="57.6" xlink:href="#m43d4eee6f2" y="124.416"/>
      </g>
     </g>
     <g id="text_37">
      <!-- 450 -->
      <g transform="translate(35.6 127.8535)scale(0.1 -0.1)">
       <use xlink:href="#SimHei-52"/>
       <use x="50" xlink:href="#SimHei-53"/>
       <use x="100" xlink:href="#SimHei-48"/>
      </g>
     </g>
    </g>
    <g id="ytick_11">
     <g id="line2d_37">
      <g>
       <use style="stroke:#000000;stroke-width:0.8;" x="57.6" xlink:href="#m43d4eee6f2" y="103.68"/>
      </g>
     </g>
     <g id="text_38">
      <!-- 500 -->
      <g transform="translate(35.6 107.1175)scale(0.1 -0.1)">
       <use xlink:href="#SimHei-53"/>
       <use x="50" xlink:href="#SimHei-48"/>
       <use x="100" xlink:href="#SimHei-48"/>
      </g>
     </g>
    </g>
    <g id="ytick_12">
     <g id="line2d_38">
      <g>
       <use style="stroke:#000000;stroke-width:0.8;" x="57.6" xlink:href="#m43d4eee6f2" y="82.944"/>
      </g>
     </g>
     <g id="text_39">
      <!-- 550 -->
      <g transform="translate(35.6 86.3815)scale(0.1 -0.1)">
       <use xlink:href="#SimHei-53"/>
       <use x="50" xlink:href="#SimHei-53"/>
       <use x="100" xlink:href="#SimHei-48"/>
      </g>
     </g>
    </g>
    <g id="ytick_13">
     <g id="line2d_39">
      <g>
       <use style="stroke:#000000;stroke-width:0.8;" x="57.6" xlink:href="#m43d4eee6f2" y="62.208"/>
      </g>
     </g>
     <g id="text_40">
      <!-- 600 -->
      <g transform="translate(35.6 65.6455)scale(0.1 -0.1)">
       <use xlink:href="#SimHei-54"/>
       <use x="50" xlink:href="#SimHei-48"/>
       <use x="100" xlink:href="#SimHei-48"/>
      </g>
     </g>
    </g>
    <g id="ytick_14">
     <g id="line2d_40">
      <g>
       <use style="stroke:#000000;stroke-width:0.8;" x="57.6" xlink:href="#m43d4eee6f2" y="41.472"/>
      </g>
     </g>
     <g id="text_41">
      <!-- 650 -->
      <g transform="translate(35.6 44.9095)scale(0.1 -0.1)">
       <use xlink:href="#SimHei-54"/>
       <use x="50" xlink:href="#SimHei-53"/>
       <use x="100" xlink:href="#SimHei-48"/>
      </g>
     </g>
    </g>
    <g id="text_42">
     <!-- 接收的PR数量 -->
     <g transform="translate(30.35 206.256)rotate(-90)scale(0.1 -0.1)">
      <defs>
       <path d="M 66.015625 35.546875 
Q 64.84375 34.375 62.5 29.6875 
L 87.5 29.6875 
Q 94.53125 30.078125 96.09375 30.078125 
L 96.09375 23.046875 
Q 93.359375 23.4375 88.28125 23.4375 
L 81.640625 23.4375 
Q 78.125 14.453125 73.4375 7.8125 
Q 85.546875 1.953125 94.53125 -2.734375 
Q 93.359375 -3.90625 88.671875 -9.765625 
Q 82.421875 -5.078125 68.359375 2.34375 
Q 62.890625 -2.34375 55.65625 -5.265625 
Q 48.4375 -8.203125 38.28125 -10.15625 
Q 37.890625 -7.03125 34.765625 -3.125 
Q 41.015625 -2.34375 48.046875 -0.578125 
Q 55.078125 1.171875 61.328125 5.46875 
Q 57.8125 7.03125 44.921875 12.5 
Q 47.265625 16.015625 51.171875 23.4375 
L 44.921875 23.4375 
Q 38.671875 23.4375 35.9375 23.046875 
L 35.9375 30.46875 
Q 37.890625 30.078125 44.53125 29.6875 
L 53.90625 29.6875 
Q 56.640625 36.328125 57.03125 39.0625 
Q 63.671875 36.328125 66.015625 35.546875 
z
M 18.359375 61.71875 
L 18.359375 73.4375 
Q 18.359375 75.78125 17.578125 80.078125 
L 26.171875 80.078125 
Q 25.390625 75.78125 25.390625 73.4375 
L 25.390625 61.71875 
Q 29.296875 61.71875 35.15625 62.109375 
L 35.15625 54.6875 
Q 29.296875 55.078125 25.390625 55.078125 
L 25.390625 36.71875 
Q 27.34375 37.890625 34.375 41.015625 
Q 34.375 35.9375 34.765625 33.59375 
Q 27.734375 30.46875 25.390625 29.296875 
L 25.390625 1.171875 
Q 25.390625 -4.296875 22.265625 -6.640625 
Q 19.140625 -8.984375 10.15625 -9.765625 
Q 10.15625 -7.03125 7.03125 -0.390625 
Q 14.84375 -1.5625 16.40625 -0.390625 
Q 17.96875 0.78125 18.359375 4.296875 
L 18.359375 26.5625 
Q 15.234375 25.390625 7.03125 20.703125 
Q 5.078125 26.5625 3.515625 29.296875 
Q 13.28125 31.640625 18.359375 33.984375 
L 18.359375 55.078125 
L 15.625 55.078125 
Q 10.15625 55.078125 4.6875 54.6875 
L 4.6875 62.5 
Q 10.546875 61.71875 15.625 61.71875 
z
M 74.609375 64.0625 
Q 81.25 60.546875 83.59375 59.765625 
Q 81.25 57.8125 76.953125 46.09375 
L 84.765625 46.09375 
Q 91.015625 46.484375 92.96875 46.875 
L 92.96875 39.453125 
Q 90.234375 39.84375 85.546875 39.84375 
L 47.265625 39.84375 
Q 44.53125 39.84375 38.28125 39.453125 
L 38.28125 46.875 
Q 44.140625 46.484375 46.484375 46.09375 
L 69.53125 46.09375 
Q 73.4375 56.640625 74.609375 64.0625 
z
M 61.71875 71.484375 
Q 60.15625 78.125 58.984375 80.46875 
Q 64.453125 81.640625 67.1875 82.421875 
L 70.3125 71.484375 
L 83.59375 71.484375 
Q 89.0625 71.875 92.96875 71.875 
L 92.96875 64.84375 
Q 88.671875 65.234375 83.984375 65.234375 
L 49.609375 65.234375 
Q 43.359375 65.234375 39.0625 64.84375 
L 39.0625 71.875 
Q 42.96875 71.484375 48.4375 71.484375 
z
M 54.296875 15.625 
Q 63.28125 12.5 67.1875 10.15625 
Q 72.265625 17.578125 74.21875 23.4375 
L 59.375 23.4375 
Q 55.859375 18.359375 54.296875 15.625 
z
M 53.515625 61.71875 
Q 58.203125 53.90625 60.15625 50 
Q 53.90625 48.046875 52.34375 46.875 
Q 49.21875 54.296875 46.484375 57.8125 
Q 50.78125 59.765625 53.515625 61.71875 
z
" id="SimHei-25509"/>
       <path d="M 66.40625 78.90625 
Q 64.453125 75.78125 58.59375 63.28125 
L 80.46875 63.28125 
Q 88.671875 63.28125 95.703125 63.671875 
L 95.703125 56.25 
Q 88.671875 56.640625 82.8125 56.640625 
Q 81.640625 41.015625 78.515625 30.859375 
Q 75.390625 20.703125 71.484375 14.0625 
Q 76.5625 7.8125 82.609375 4.296875 
Q 88.671875 0.78125 96.875 -1.171875 
Q 92.1875 -4.296875 90.625 -8.59375 
Q 82.8125 -5.46875 77.34375 -1.5625 
Q 71.875 2.34375 66.796875 8.203125 
Q 59.375 0 43.359375 -9.765625 
Q 41.40625 -6.640625 35.9375 -3.515625 
Q 51.171875 2.34375 61.71875 14.453125 
Q 58.984375 20.703125 56.4375 27.921875 
Q 53.90625 35.15625 50.78125 46.875 
Q 46.484375 38.28125 44.140625 35.546875 
Q 41.40625 37.5 37.890625 39.453125 
Q 43.359375 47.265625 49.015625 59.953125 
Q 54.6875 72.65625 56.640625 82.03125 
Q 61.328125 80.078125 66.40625 78.90625 
z
M 15.234375 66.796875 
Q 14.453125 61.71875 14.453125 53.90625 
L 14.453125 24.609375 
L 27.734375 26.953125 
L 27.734375 69.140625 
Q 27.734375 74.609375 27.34375 80.46875 
L 35.15625 80.46875 
Q 34.765625 75.78125 34.765625 69.53125 
L 34.765625 4.6875 
Q 34.765625 -0.78125 35.15625 -8.59375 
L 27.34375 -8.59375 
Q 27.734375 -0.390625 27.734375 5.46875 
L 27.734375 21.09375 
Q 9.765625 16.40625 7.8125 14.453125 
Q 5.859375 17.578125 3.515625 21.09375 
Q 7.03125 23.046875 7.03125 28.125 
L 7.03125 55.859375 
Q 7.03125 61.328125 6.640625 66.796875 
L 15.234375 66.796875 
z
M 58.203125 49.21875 
Q 59.375 42.1875 61.90625 34.5625 
Q 64.453125 26.953125 67.1875 21.484375 
Q 73.828125 33.59375 75.390625 56.640625 
L 55.859375 56.640625 
Q 53.125 51.171875 51.5625 48.4375 
z
" id="SimHei-25910"/>
       <path d="M 32.8125 77.734375 
Q 30.859375 74.21875 27.34375 61.71875 
L 44.921875 61.71875 
Q 44.53125 55.078125 44.53125 44.921875 
L 44.53125 10.546875 
Q 44.53125 4.6875 44.921875 -6.25 
L 37.109375 -6.25 
L 37.109375 1.5625 
L 17.1875 1.5625 
L 17.1875 -7.03125 
L 9.375 -7.03125 
Q 9.765625 5.46875 9.765625 8.59375 
L 9.765625 44.53125 
Q 9.765625 55.078125 9.375 61.71875 
L 20.703125 61.71875 
Q 22.65625 70.703125 23.828125 80.46875 
Q 29.296875 78.515625 32.8125 77.734375 
z
M 91.015625 48.046875 
Q 90.625 24.21875 89.0625 2.734375 
Q 88.28125 -4.296875 81.640625 -6.640625 
Q 75 -8.984375 66.796875 -9.765625 
Q 66.40625 -5.46875 63.28125 -0.78125 
Q 71.09375 -1.171875 75.578125 -0.390625 
Q 80.078125 0.390625 81.25 3.125 
Q 82.421875 5.859375 83 19.140625 
Q 83.59375 32.421875 83.984375 56.25 
L 61.328125 56.25 
Q 58.203125 48.828125 52.34375 38.671875 
Q 49.609375 41.40625 45.703125 42.96875 
Q 49.21875 47.65625 52.34375 54.296875 
Q 55.46875 60.9375 57.8125 68.75 
Q 60.15625 76.5625 60.546875 80.859375 
Q 66.015625 78.515625 69.921875 77.34375 
Q 67.96875 74.21875 66.59375 70.5 
Q 65.234375 66.796875 63.671875 63.28125 
L 91.40625 63.28125 
Q 91.015625 55.078125 91.015625 48.046875 
z
M 37.109375 8.203125 
L 37.109375 28.90625 
L 17.1875 28.90625 
L 17.1875 8.203125 
z
M 37.109375 35.546875 
L 37.109375 55.078125 
L 17.1875 55.078125 
L 17.1875 35.546875 
z
M 67.96875 32.03125 
Q 70.3125 27.34375 73.4375 19.921875 
Q 70.703125 18.75 66.015625 16.015625 
Q 63.28125 23.4375 60.9375 28.703125 
Q 58.59375 33.984375 56.25 37.5 
Q 58.984375 39.0625 63.28125 41.40625 
z
" id="SimHei-30340"/>
       <path d="M 46.09375 48.4375 
Q 46.09375 39.0625 40.625 33.59375 
Q 35.15625 28.125 25.390625 28.125 
L 14.0625 28.125 
L 14.0625 1.953125 
L 5.078125 1.953125 
L 5.078125 68.75 
L 25.390625 68.75 
Q 35.15625 68.75 40.625 63.28125 
Q 46.09375 57.8125 46.09375 48.4375 
z
M 37.109375 48.4375 
Q 37.109375 55.859375 33.59375 58.59375 
Q 30.078125 61.328125 23.046875 61.328125 
L 14.0625 61.328125 
L 14.0625 35.546875 
L 23.046875 35.546875 
Q 30.078125 35.546875 33.59375 38.28125 
Q 37.109375 41.015625 37.109375 48.4375 
z
" id="SimHei-80"/>
       <path d="M 46.875 1.953125 
L 37.5 1.953125 
L 23.4375 30.859375 
L 13.28125 30.859375 
L 13.28125 1.953125 
L 4.296875 1.953125 
L 4.296875 68.75 
L 23.828125 68.75 
Q 33.203125 68.75 39.0625 64.25 
Q 44.921875 59.765625 44.921875 49.609375 
Q 44.921875 41.796875 41.015625 37.5 
Q 37.109375 33.203125 32.03125 32.03125 
z
M 35.9375 49.609375 
Q 35.9375 55.078125 32.609375 58.203125 
Q 29.296875 61.328125 21.875 61.328125 
L 13.28125 61.328125 
L 13.28125 38.28125 
L 24.21875 38.28125 
Q 28.90625 38.28125 32.421875 40.8125 
Q 35.9375 43.359375 35.9375 49.609375 
z
" id="SimHei-82"/>
       <path d="M 70.703125 76.953125 
Q 69.921875 75 68.75 71.671875 
Q 67.578125 68.359375 65.234375 59.765625 
L 83.203125 59.765625 
Q 87.109375 59.765625 92.578125 60.15625 
L 92.578125 53.125 
Q 88.28125 53.515625 85.9375 53.515625 
Q 85.9375 47.265625 83.78125 33.78125 
Q 81.640625 20.3125 76.171875 10.546875 
Q 80.078125 5.859375 84.953125 2.140625 
Q 89.84375 -1.5625 94.140625 -3.125 
Q 89.453125 -6.640625 87.890625 -9.765625 
Q 83.203125 -7.03125 79.296875 -3.515625 
Q 75.390625 0 71.484375 5.078125 
Q 67.1875 0.390625 62.296875 -2.921875 
Q 57.421875 -6.25 50 -10.15625 
Q 48.046875 -6.640625 44.53125 -4.6875 
Q 50.390625 -2.34375 57.03125 1.953125 
Q 63.671875 6.25 67.1875 10.546875 
Q 64.453125 16.015625 61.90625 22.265625 
Q 59.375 28.515625 57.421875 38.671875 
Q 56.25 35.546875 53.515625 30.46875 
Q 50.78125 32.03125 46.875 33.59375 
Q 53.125 44.53125 57.03125 57.421875 
Q 60.9375 70.3125 62.109375 79.6875 
Q 66.796875 77.734375 70.703125 76.953125 
z
M 32.8125 35.15625 
Q 31.25 33.59375 29.296875 30.078125 
L 50.78125 30.078125 
Q 48.4375 20.3125 42.578125 10.546875 
Q 48.828125 8.203125 52.34375 6.25 
Q 50.390625 3.515625 48.828125 0.390625 
Q 45.3125 2.734375 38.28125 5.078125 
Q 30.46875 -3.515625 11.328125 -10.15625 
Q 9.375 -5.859375 6.25 -4.296875 
Q 24.609375 0 31.25 7.421875 
Q 20.3125 10.15625 13.28125 12.109375 
Q 15.625 15.625 19.53125 23.828125 
Q 15.625 23.828125 6.640625 23.4375 
L 6.640625 30.46875 
Q 14.0625 30.078125 21.875 30.078125 
Q 23.4375 33.59375 24.21875 37.890625 
Q 28.515625 36.328125 32.8125 35.15625 
z
M 27.734375 61.71875 
Q 27.734375 71.09375 27.34375 79.6875 
L 35.15625 79.6875 
Q 34.765625 71.484375 34.765625 61.71875 
Q 48.046875 61.71875 53.515625 62.109375 
L 53.515625 55.078125 
Q 48.046875 55.46875 34.765625 55.46875 
Q 34.765625 44.140625 35.15625 37.890625 
L 27.34375 37.890625 
Q 27.734375 43.359375 27.734375 51.5625 
Q 25.78125 48.4375 20.3125 43.546875 
Q 14.84375 38.671875 10.15625 35.9375 
Q 8.203125 39.453125 4.296875 41.015625 
Q 7.8125 42.1875 13.671875 46.484375 
Q 19.53125 50.78125 22.65625 55.46875 
Q 14.84375 55.46875 7.8125 55.078125 
L 7.8125 62.109375 
Q 14.453125 61.71875 27.734375 61.71875 
z
M 62.109375 49.609375 
Q 65.625 26.5625 71.875 17.578125 
Q 75.78125 26.5625 77.140625 35.734375 
Q 78.515625 44.921875 78.90625 53.515625 
L 63.671875 53.515625 
L 62.109375 49.609375 
z
M 22.65625 15.625 
Q 27.34375 14.453125 35.546875 12.5 
Q 38.671875 16.40625 41.40625 23.828125 
L 26.953125 23.828125 
Q 25 19.921875 22.65625 15.625 
z
M 51.953125 75.390625 
Q 50 72.265625 48.828125 69.53125 
Q 47.65625 66.796875 45.703125 62.890625 
Q 42.578125 64.453125 39.453125 65.234375 
Q 42.578125 70.3125 45.3125 78.125 
Q 49.21875 76.171875 51.953125 75.390625 
z
M 40.234375 52.734375 
Q 45.3125 47.65625 50 42.578125 
Q 47.65625 40.625 44.921875 37.890625 
Q 39.453125 44.53125 35.9375 48.4375 
Q 38.28125 50.390625 40.234375 52.734375 
z
M 14.453125 78.125 
Q 19.921875 72.65625 23.4375 67.1875 
L 17.578125 63.671875 
Q 14.84375 69.140625 9.375 73.828125 
Q 12.890625 76.171875 14.453125 78.125 
z
" id="SimHei-25968"/>
       <path d="M 82.03125 39.0625 
Q 81.640625 34.375 81.640625 26.5625 
Q 81.640625 19.140625 82.03125 14.84375 
L 53.515625 14.84375 
L 53.515625 9.765625 
L 71.484375 9.765625 
Q 78.125 9.765625 83.984375 10.15625 
L 83.984375 4.296875 
Q 78.515625 4.6875 71.484375 4.6875 
L 53.515625 4.6875 
L 53.515625 -1.171875 
L 80.078125 -1.171875 
Q 86.328125 -1.171875 92.578125 -0.78125 
L 92.578125 -6.640625 
Q 86.328125 -6.25 80.078125 -6.25 
L 19.921875 -6.25 
Q 14.0625 -6.25 7.421875 -6.640625 
L 7.421875 -0.78125 
Q 14.453125 -0.78125 19.921875 -1.171875 
L 46.484375 -1.171875 
L 46.484375 4.6875 
L 26.953125 4.6875 
Q 21.09375 4.6875 15.234375 3.90625 
L 15.234375 10.15625 
Q 21.484375 9.765625 26.953125 9.765625 
L 46.484375 9.765625 
L 46.484375 14.84375 
L 17.96875 14.84375 
Q 18.359375 21.484375 18.359375 27.734375 
Q 18.359375 33.984375 17.96875 39.0625 
L 82.03125 39.0625 
z
M 81.25 77.34375 
Q 80.859375 71.484375 80.859375 66.40625 
Q 80.859375 61.328125 81.25 53.125 
L 18.75 53.125 
Q 19.140625 61.328125 19.140625 66.40625 
Q 19.140625 71.484375 18.75 77.34375 
L 81.25 77.34375 
z
M 76.5625 48.4375 
Q 85.9375 48.828125 93.75 49.21875 
L 93.75 42.96875 
Q 85.9375 43.359375 76.953125 43.359375 
L 25.78125 43.359375 
Q 15.234375 43.359375 5.078125 42.96875 
L 5.078125 49.21875 
Q 15.234375 48.828125 25.78125 48.4375 
z
M 73.828125 57.8125 
L 73.828125 62.890625 
L 26.171875 62.890625 
L 26.171875 57.8125 
z
M 73.828125 67.96875 
L 73.828125 72.65625 
L 26.171875 72.65625 
L 26.171875 67.96875 
z
M 74.21875 29.296875 
L 74.21875 33.984375 
L 53.515625 33.984375 
L 53.515625 29.296875 
z
M 46.484375 29.296875 
L 46.484375 33.984375 
L 25.78125 33.984375 
L 25.78125 29.296875 
z
M 46.484375 19.921875 
L 46.484375 24.21875 
L 25.78125 24.21875 
L 25.78125 19.921875 
z
M 74.21875 19.921875 
L 74.21875 24.21875 
L 53.515625 24.21875 
L 53.515625 19.921875 
z
" id="SimHei-37327"/>
      </defs>
      <use xlink:href="#SimHei-25509"/>
      <use x="100" xlink:href="#SimHei-25910"/>
      <use x="200" xlink:href="#SimHei-30340"/>
      <use x="300" xlink:href="#SimHei-80"/>
      <use x="350" xlink:href="#SimHei-82"/>
      <use x="400" xlink:href="#SimHei-25968"/>
      <use x="500" xlink:href="#SimHei-37327"/>
     </g>
    </g>
   </g>
   <g id="line2d_41">
    <path clip-path="url(#p1e151e2fe3)" d="M 57.6 310.62528 
L 61.033846 310.21056 
L 64.467692 310.62528 
L 67.901538 309.79584 
L 71.335385 306.8928 
L 74.769231 304.8192 
L 78.203077 304.8192 
L 81.636923 302.33088 
L 85.070769 294.86592 
L 88.504615 303.98976 
L 91.938462 302.33088 
L 95.372308 301.50144 
L 98.806154 294.86592 
L 102.24 294.03648 
L 105.673846 303.16032 
L 109.107692 305.64864 
L 112.541538 294.4512 
L 115.975385 297.35424 
L 119.409231 272.47104 
L 122.843077 284.91264 
L 126.276923 294.03648 
L 129.710769 287.40096 
L 133.144615 257.95584 
L 136.578462 275.7888 
L 140.012308 267.90912 
L 143.446154 246.34368 
L 146.88 254.63808 
L 150.313846 267.90912 
L 153.747692 243.85536 
L 157.181538 240.12288 
L 160.615385 274.54464 
L 164.049231 278.27712 
L 167.483077 233.48736 
L 170.916923 257.54112 
L 174.350769 269.98272 
L 177.784615 264.17664 
L 181.218462 257.54112 
L 184.652308 246.34368 
L 188.086154 266.66496 
L 191.52 262.10304 
L 194.953846 260.85888 
L 198.387692 267.90912 
L 201.821538 268.32384 
L 205.255385 274.12992 
L 208.689231 281.18016 
L 212.123077 284.91264 
L 215.556923 277.44768 
L 218.990769 256.29696 
L 222.424615 274.54464 
L 225.858462 268.73856 
L 229.292308 274.54464 
L 232.726154 267.07968 
L 236.16 256.71168 
L 239.593846 269.98272 
L 243.027692 277.03296 
L 246.461538 276.20352 
L 249.895385 266.66496 
L 253.329231 254.63808 
L 256.763077 267.90912 
L 260.196923 263.3472 
L 263.630769 262.93248 
L 267.064615 280.76544 
L 270.498462 246.7584 
L 273.932308 256.71168 
L 277.366154 285.74208 
L 280.8 272.05632 
L 284.233846 273.30048 
L 287.667692 259.2 
L 291.101538 265.4208 
L 294.535385 267.07968 
L 297.969231 245.09952 
L 301.403077 236.80512 
L 304.836923 234.73152 
L 308.270769 274.95936 
L 311.704615 252.14976 
L 315.138462 259.61472 
L 318.572308 243.44064 
L 322.006154 240.95232 
L 325.44 197.82144 
L 328.873846 216.06912 
L 332.307692 221.04576 
L 335.741538 213.99552 
L 339.175385 139.76064 
L 342.609231 261.2736 
L 346.043077 242.6112 
L 349.476923 237.21984 
L 352.910769 214.82496 
L 356.344615 231.41376 
L 359.778462 243.02592 
L 363.212308 187.45344 
L 366.646154 183.72096 
L 370.08 194.9184 
L 373.513846 182.4768 
L 376.947692 226.0224 
L 380.381538 213.99552 
L 383.815385 246.34368 
L 387.249231 236.3904 
L 390.683077 194.08896 
L 394.116923 196.992 
L 397.550769 170.44992 
L 400.984615 216.06912 
L 404.418462 155.52 
L 407.852308 130.6368 
L 411.286154 121.92768 
L 414.72 51.42528 
" style="fill:none;stroke:#1f77b4;stroke-linecap:square;stroke-width:1.5;"/>
    <defs>
     <path d="M 0 1.5 
C 0.397805 1.5 0.77937 1.341951 1.06066 1.06066 
C 1.341951 0.77937 1.5 0.397805 1.5 0 
C 1.5 -0.397805 1.341951 -0.77937 1.06066 -1.06066 
C 0.77937 -1.341951 0.397805 -1.5 0 -1.5 
C -0.397805 -1.5 -0.77937 -1.341951 -1.06066 -1.06066 
C -1.341951 -0.77937 -1.5 -0.397805 -1.5 0 
C -1.5 0.397805 -1.341951 0.77937 -1.06066 1.06066 
C -0.77937 1.341951 -0.397805 1.5 0 1.5 
z
" id="me45d18d630" style="stroke:#1f77b4;"/>
    </defs>
    <g clip-path="url(#p1e151e2fe3)">
     <use style="fill:#1f77b4;stroke:#1f77b4;" x="57.6" xlink:href="#me45d18d630" y="310.62528"/>
     <use style="fill:#1f77b4;stroke:#1f77b4;" x="61.033846" xlink:href="#me45d18d630" y="310.21056"/>
     <use style="fill:#1f77b4;stroke:#1f77b4;" x="64.467692" xlink:href="#me45d18d630" y="310.62528"/>
     <use style="fill:#1f77b4;stroke:#1f77b4;" x="67.901538" xlink:href="#me45d18d630" y="309.79584"/>
     <use style="fill:#1f77b4;stroke:#1f77b4;" x="71.335385" xlink:href="#me45d18d630" y="306.8928"/>
     <use style="fill:#1f77b4;stroke:#1f77b4;" x="74.769231" xlink:href="#me45d18d630" y="304.8192"/>
     <use style="fill:#1f77b4;stroke:#1f77b4;" x="78.203077" xlink:href="#me45d18d630" y="304.8192"/>
     <use style="fill:#1f77b4;stroke:#1f77b4;" x="81.636923" xlink:href="#me45d18d630" y="302.33088"/>
     <use style="fill:#1f77b4;stroke:#1f77b4;" x="85.070769" xlink:href="#me45d18d630" y="294.86592"/>
     <use style="fill:#1f77b4;stroke:#1f77b4;" x="88.504615" xlink:href="#me45d18d630" y="303.98976"/>
     <use style="fill:#1f77b4;stroke:#1f77b4;" x="91.938462" xlink:href="#me45d18d630" y="302.33088"/>
     <use style="fill:#1f77b4;stroke:#1f77b4;" x="95.372308" xlink:href="#me45d18d630" y="301.50144"/>
     <use style="fill:#1f77b4;stroke:#1f77b4;" x="98.806154" xlink:href="#me45d18d630" y="294.86592"/>
     <use style="fill:#1f77b4;stroke:#1f77b4;" x="102.24" xlink:href="#me45d18d630" y="294.03648"/>
     <use style="fill:#1f77b4;stroke:#1f77b4;" x="105.673846" xlink:href="#me45d18d630" y="303.16032"/>
     <use style="fill:#1f77b4;stroke:#1f77b4;" x="109.107692" xlink:href="#me45d18d630" y="305.64864"/>
     <use style="fill:#1f77b4;stroke:#1f77b4;" x="112.541538" xlink:href="#me45d18d630" y="294.4512"/>
     <use style="fill:#1f77b4;stroke:#1f77b4;" x="115.975385" xlink:href="#me45d18d630" y="297.35424"/>
     <use style="fill:#1f77b4;stroke:#1f77b4;" x="119.409231" xlink:href="#me45d18d630" y="272.47104"/>
     <use style="fill:#1f77b4;stroke:#1f77b4;" x="122.843077" xlink:href="#me45d18d630" y="284.91264"/>
     <use style="fill:#1f77b4;stroke:#1f77b4;" x="126.276923" xlink:href="#me45d18d630" y="294.03648"/>
     <use style="fill:#1f77b4;stroke:#1f77b4;" x="129.710769" xlink:href="#me45d18d630" y="287.40096"/>
     <use style="fill:#1f77b4;stroke:#1f77b4;" x="133.144615" xlink:href="#me45d18d630" y="257.95584"/>
     <use style="fill:#1f77b4;stroke:#1f77b4;" x="136.578462" xlink:href="#me45d18d630" y="275.7888"/>
     <use style="fill:#1f77b4;stroke:#1f77b4;" x="140.012308" xlink:href="#me45d18d630" y="267.90912"/>
     <use style="fill:#1f77b4;stroke:#1f77b4;" x="143.446154" xlink:href="#me45d18d630" y="246.34368"/>
     <use style="fill:#1f77b4;stroke:#1f77b4;" x="146.88" xlink:href="#me45d18d630" y="254.63808"/>
     <use style="fill:#1f77b4;stroke:#1f77b4;" x="150.313846" xlink:href="#me45d18d630" y="267.90912"/>
     <use style="fill:#1f77b4;stroke:#1f77b4;" x="153.747692" xlink:href="#me45d18d630" y="243.85536"/>
     <use style="fill:#1f77b4;stroke:#1f77b4;" x="157.181538" xlink:href="#me45d18d630" y="240.12288"/>
     <use style="fill:#1f77b4;stroke:#1f77b4;" x="160.615385" xlink:href="#me45d18d630" y="274.54464"/>
     <use style="fill:#1f77b4;stroke:#1f77b4;" x="164.049231" xlink:href="#me45d18d630" y="278.27712"/>
     <use style="fill:#1f77b4;stroke:#1f77b4;" x="167.483077" xlink:href="#me45d18d630" y="233.48736"/>
     <use style="fill:#1f77b4;stroke:#1f77b4;" x="170.916923" xlink:href="#me45d18d630" y="257.54112"/>
     <use style="fill:#1f77b4;stroke:#1f77b4;" x="174.350769" xlink:href="#me45d18d630" y="269.98272"/>
     <use style="fill:#1f77b4;stroke:#1f77b4;" x="177.784615" xlink:href="#me45d18d630" y="264.17664"/>
     <use style="fill:#1f77b4;stroke:#1f77b4;" x="181.218462" xlink:href="#me45d18d630" y="257.54112"/>
     <use style="fill:#1f77b4;stroke:#1f77b4;" x="184.652308" xlink:href="#me45d18d630" y="246.34368"/>
     <use style="fill:#1f77b4;stroke:#1f77b4;" x="188.086154" xlink:href="#me45d18d630" y="266.66496"/>
     <use style="fill:#1f77b4;stroke:#1f77b4;" x="191.52" xlink:href="#me45d18d630" y="262.10304"/>
     <use style="fill:#1f77b4;stroke:#1f77b4;" x="194.953846" xlink:href="#me45d18d630" y="260.85888"/>
     <use style="fill:#1f77b4;stroke:#1f77b4;" x="198.387692" xlink:href="#me45d18d630" y="267.90912"/>
     <use style="fill:#1f77b4;stroke:#1f77b4;" x="201.821538" xlink:href="#me45d18d630" y="268.32384"/>
     <use style="fill:#1f77b4;stroke:#1f77b4;" x="205.255385" xlink:href="#me45d18d630" y="274.12992"/>
     <use style="fill:#1f77b4;stroke:#1f77b4;" x="208.689231" xlink:href="#me45d18d630" y="281.18016"/>
     <use style="fill:#1f77b4;stroke:#1f77b4;" x="212.123077" xlink:href="#me45d18d630" y="284.91264"/>
     <use style="fill:#1f77b4;stroke:#1f77b4;" x="215.556923" xlink:href="#me45d18d630" y="277.44768"/>
     <use style="fill:#1f77b4;stroke:#1f77b4;" x="218.990769" xlink:href="#me45d18d630" y="256.29696"/>
     <use style="fill:#1f77b4;stroke:#1f77b4;" x="222.424615" xlink:href="#me45d18d630" y="274.54464"/>
     <use style="fill:#1f77b4;stroke:#1f77b4;" x="225.858462" xlink:href="#me45d18d630" y="268.73856"/>
     <use style="fill:#1f77b4;stroke:#1f77b4;" x="229.292308" xlink:href="#me45d18d630" y="274.54464"/>
     <use style="fill:#1f77b4;stroke:#1f77b4;" x="232.726154" xlink:href="#me45d18d630" y="267.07968"/>
     <use style="fill:#1f77b4;stroke:#1f77b4;" x="236.16" xlink:href="#me45d18d630" y="256.71168"/>
     <use style="fill:#1f77b4;stroke:#1f77b4;" x="239.593846" xlink:href="#me45d18d630" y="269.98272"/>
     <use style="fill:#1f77b4;stroke:#1f77b4;" x="243.027692" xlink:href="#me45d18d630" y="277.03296"/>
     <use style="fill:#1f77b4;stroke:#1f77b4;" x="246.461538" xlink:href="#me45d18d630" y="276.20352"/>
     <use style="fill:#1f77b4;stroke:#1f77b4;" x="249.895385" xlink:href="#me45d18d630" y="266.66496"/>
     <use style="fill:#1f77b4;stroke:#1f77b4;" x="253.329231" xlink:href="#me45d18d630" y="254.63808"/>
     <use style="fill:#1f77b4;stroke:#1f77b4;" x="256.763077" xlink:href="#me45d18d630" y="267.90912"/>
     <use style="fill:#1f77b4;stroke:#1f77b4;" x="260.196923" xlink:href="#me45d18d630" y="263.3472"/>
     <use style="fill:#1f77b4;stroke:#1f77b4;" x="263.630769" xlink:href="#me45d18d630" y="262.93248"/>
     <use style="fill:#1f77b4;stroke:#1f77b4;" x="267.064615" xlink:href="#me45d18d630" y="280.76544"/>
     <use style="fill:#1f77b4;stroke:#1f77b4;" x="270.498462" xlink:href="#me45d18d630" y="246.7584"/>
     <use style="fill:#1f77b4;stroke:#1f77b4;" x="273.932308" xlink:href="#me45d18d630" y="256.71168"/>
     <use style="fill:#1f77b4;stroke:#1f77b4;" x="277.366154" xlink:href="#me45d18d630" y="285.74208"/>
     <use style="fill:#1f77b4;stroke:#1f77b4;" x="280.8" xlink:href="#me45d18d630" y="272.05632"/>
     <use style="fill:#1f77b4;stroke:#1f77b4;" x="284.233846" xlink:href="#me45d18d630" y="273.30048"/>
     <use style="fill:#1f77b4;stroke:#1f77b4;" x="287.667692" xlink:href="#me45d18d630" y="259.2"/>
     <use style="fill:#1f77b4;stroke:#1f77b4;" x="291.101538" xlink:href="#me45d18d630" y="265.4208"/>
     <use style="fill:#1f77b4;stroke:#1f77b4;" x="294.535385" xlink:href="#me45d18d630" y="267.07968"/>
     <use style="fill:#1f77b4;stroke:#1f77b4;" x="297.969231" xlink:href="#me45d18d630" y="245.09952"/>
     <use style="fill:#1f77b4;stroke:#1f77b4;" x="301.403077" xlink:href="#me45d18d630" y="236.80512"/>
     <use style="fill:#1f77b4;stroke:#1f77b4;" x="304.836923" xlink:href="#me45d18d630" y="234.73152"/>
     <use style="fill:#1f77b4;stroke:#1f77b4;" x="308.270769" xlink:href="#me45d18d630" y="274.95936"/>
     <use style="fill:#1f77b4;stroke:#1f77b4;" x="311.704615" xlink:href="#me45d18d630" y="252.14976"/>
     <use style="fill:#1f77b4;stroke:#1f77b4;" x="315.138462" xlink:href="#me45d18d630" y="259.61472"/>
     <use style="fill:#1f77b4;stroke:#1f77b4;" x="318.572308" xlink:href="#me45d18d630" y="243.44064"/>
     <use style="fill:#1f77b4;stroke:#1f77b4;" x="322.006154" xlink:href="#me45d18d630" y="240.95232"/>
     <use style="fill:#1f77b4;stroke:#1f77b4;" x="325.44" xlink:href="#me45d18d630" y="197.82144"/>
     <use style="fill:#1f77b4;stroke:#1f77b4;" x="328.873846" xlink:href="#me45d18d630" y="216.06912"/>
     <use style="fill:#1f77b4;stroke:#1f77b4;" x="332.307692" xlink:href="#me45d18d630" y="221.04576"/>
     <use style="fill:#1f77b4;stroke:#1f77b4;" x="335.741538" xlink:href="#me45d18d630" y="213.99552"/>
     <use style="fill:#1f77b4;stroke:#1f77b4;" x="339.175385" xlink:href="#me45d18d630" y="139.76064"/>
     <use style="fill:#1f77b4;stroke:#1f77b4;" x="342.609231" xlink:href="#me45d18d630" y="261.2736"/>
     <use style="fill:#1f77b4;stroke:#1f77b4;" x="346.043077" xlink:href="#me45d18d630" y="242.6112"/>
     <use style="fill:#1f77b4;stroke:#1f77b4;" x="349.476923" xlink:href="#me45d18d630" y="237.21984"/>
     <use style="fill:#1f77b4;stroke:#1f77b4;" x="352.910769" xlink:href="#me45d18d630" y="214.82496"/>
     <use style="fill:#1f77b4;stroke:#1f77b4;" x="356.344615" xlink:href="#me45d18d630" y="231.41376"/>
     <use style="fill:#1f77b4;stroke:#1f77b4;" x="359.778462" xlink:href="#me45d18d630" y="243.02592"/>
     <use style="fill:#1f77b4;stroke:#1f77b4;" x="363.212308" xlink:href="#me45d18d630" y="187.45344"/>
     <use style="fill:#1f77b4;stroke:#1f77b4;" x="366.646154" xlink:href="#me45d18d630" y="183.72096"/>
     <use style="fill:#1f77b4;stroke:#1f77b4;" x="370.08" xlink:href="#me45d18d630" y="194.9184"/>
     <use style="fill:#1f77b4;stroke:#1f77b4;" x="373.513846" xlink:href="#me45d18d630" y="182.4768"/>
     <use style="fill:#1f77b4;stroke:#1f77b4;" x="376.947692" xlink:href="#me45d18d630" y="226.0224"/>
     <use style="fill:#1f77b4;stroke:#1f77b4;" x="380.381538" xlink:href="#me45d18d630" y="213.99552"/>
     <use style="fill:#1f77b4;stroke:#1f77b4;" x="383.815385" xlink:href="#me45d18d630" y="246.34368"/>
     <use style="fill:#1f77b4;stroke:#1f77b4;" x="387.249231" xlink:href="#me45d18d630" y="236.3904"/>
     <use style="fill:#1f77b4;stroke:#1f77b4;" x="390.683077" xlink:href="#me45d18d630" y="194.08896"/>
     <use style="fill:#1f77b4;stroke:#1f77b4;" x="394.116923" xlink:href="#me45d18d630" y="196.992"/>
     <use style="fill:#1f77b4;stroke:#1f77b4;" x="397.550769" xlink:href="#me45d18d630" y="170.44992"/>
     <use style="fill:#1f77b4;stroke:#1f77b4;" x="400.984615" xlink:href="#me45d18d630" y="216.06912"/>
     <use style="fill:#1f77b4;stroke:#1f77b4;" x="404.418462" xlink:href="#me45d18d630" y="155.52"/>
     <use style="fill:#1f77b4;stroke:#1f77b4;" x="407.852308" xlink:href="#me45d18d630" y="130.6368"/>
     <use style="fill:#1f77b4;stroke:#1f77b4;" x="411.286154" xlink:href="#me45d18d630" y="121.92768"/>
     <use style="fill:#1f77b4;stroke:#1f77b4;" x="414.72" xlink:href="#me45d18d630" y="51.42528"/>
    </g>
   </g>
   <g id="patch_3">
    <path d="M 57.6 311.04 
L 57.6 41.472 
" style="fill:none;stroke:#000000;stroke-linecap:square;stroke-linejoin:miter;stroke-width:0.8;"/>
   </g>
   <g id="patch_4">
    <path d="M 414.72 311.04 
L 414.72 41.472 
" style="fill:none;stroke:#000000;stroke-linecap:square;stroke-linejoin:miter;stroke-width:0.8;"/>
   </g>
   <g id="patch_5">
    <path d="M 57.6 311.04 
L 414.72 311.04 
" style="fill:none;stroke:#000000;stroke-linecap:square;stroke-linejoin:miter;stroke-width:0.8;"/>
   </g>
   <g id="patch_6">
    <path d="M 57.6 41.472 
L 414.72 41.472 
" style="fill:none;stroke:#000000;stroke-linecap:square;stroke-linejoin:miter;stroke-width:0.8;"/>
   </g>
  </g>
 </g>
 <defs>
  <clipPath id="p1e151e2fe3">
   <rect height="269.568" width="357.12" x="57.6" y="41.472"/>
  </clipPath>
 </defs>
</svg>
